<?xml version="1.0" encoding="UTF-8"?>
<svg id="Layer_2" data-name="Layer 2" xmlns="http://www.w3.org/2000/svg" viewBox="0 0 269.07 350.33">
  <defs>
    <style>
      .cls-1 {
        fill: #fff;
        stroke-width: 0px;
      }
    </style>
  </defs>
  <g id="Layer_1-2" data-name="Layer 1">
    <path class="cls-1" d="M268.77,0c-.21,3.46-.78,8.81-4.13,13.19-4.23,5.54-7.23,5.79-13.64,11.18-7.67,6.46-6.62,9.95-14.41,17.02-5.89,5.34-23.74,13.08-29.74,24.51-7.67,14.61-28.5,23.11-40.6,33.06-17.4,14.31-33.73,38.27-25.12,43.94,6.73,4.43,16.02-5.81,16.55-6.22,4.17-3.19,7.31-7.03,10.12-9.67.19-.17.38-.35.56-.51,2.9-2.59,5.49-3.71,8.6-1.27,3.72,2.94-1.1,12.02-12.36,20.19-.58.42-1.18.84-1.8,1.26-18.3,12.34-20.92,23.32-17.39,27.83,1.29,1.64,3.38,2.42,5.83,2.11,5.01-.64,11.37-6.1,18.17-11.83,4.73-3.99,8.7-5.69,11.87-5.89.21-.01.42-.02.62-.02,7.3,0,9.98,8.27,7.31,14.1-2.61,5.71-9.98,13.16-21.47,18.06-2.93,1.25-6.07,2.46-9.38,3.48-.47.15-.95.29-1.43.43-.55.16-1.1.31-1.66.46-.76.21-1.53.39-2.31.57l-13.31-16.94-22.99-29.24-20.92,28.35-21.75-28.35-50.88,70.04c-1.99-.29-3.85-.96-5.56-1.99-9.15-5.55-2.3-28.83,6.19-46.42,1.49-3.09,16.22-40.45,71.18-78.71-27.18,16.38-43.36,29.1-55.29,40.39C8.53,162.54,2.98,181.95,1.22,190.73c-3.62,18,1.86,25.37,3.31,27.15,4.21,5.17,9.57,7.74,13.5,8.95l-6.88,9.48,84.59,114.02,88.92-114.02-27.94-35.55c.33-.04.66-.09,1-.14.54-.08,1.08-.17,1.62-.27,4.58-.8,9.39-2.15,14.15-4.27,5.78-2.57,23.21-9.91,23.83-23.37.54-11.5-6.76-16.77-15.49-16.65-.22,0-.45,0-.67.03-6.07.25-12.75,3.08-17.92,8.2-8.92,8.83-22.42,5.67-2.42-12.63,1.34-1.22,2.6-2.27,3.8-3.19.72-.55,1.42-1.05,2.09-1.52,6.44-4.43,11.02-5.37,16.03-10.66,10.89-11.5,2.56-29.33-12.65-15.1-1.35,1.26-2.68,2.5-4,3.68-.22.2-.44.4-.66.6-7.44,6.69-13.9,11.69-16.08,10.71-2.21-.99-.71-9.5,2.86-16.31,3.93-7.51,12.86-13.75,24.25-18.75,12.38-5.43,16.47-9.77,21.84-16.16,9.51-11.32,6.59-14.48,15.5-23.23,8.81-8.65,14.05-7.43,24.58-16.97,9.35-8.46,4.46-11.52,14.54-19.6,6.79-5.43,11.03-6.93,13.94-13.02,2.31-4.82,2.54-8.71,1.91-12.14ZM117.07,173.51l18.78,23.72c-.9-.08-1.81-.19-2.72-.33-7.24-1.12-12.37-6.95-27.48-8.4l11.42-14.99ZM123.73,236.31l-27.99,39.19-26.64-39.58,26.64-36.01,27.99,36.4ZM74.21,173.51l11.84,15.65c-13.73,2.44-22.64,9.36-36.03,19.99-2.65,2.1-5.24,3.92-7.76,5.43l31.95-41.07ZM166.78,236.31l-71.04,92.83L25.66,235.92l7.69-9.89c4.82-1.81,11.12-5.45,18.86-12.79,12.55-11.89,19.76-19.71,33.77-22.36l-33.11,45.43,42.87,60.38,45.87-60.38-36.64-45.8c10.99,1.8,18.42,7.03,29.65,9.61,1.1.25,2.48.51,4.08.72l28.08,35.47Z"/>
  </g>
</svg>