<?xml version="1.0" encoding="UTF-8"?>
<svg id="Layer_2" data-name="Layer 2" xmlns="http://www.w3.org/2000/svg" viewBox="0 0 480.51 474.09">
  <defs>
    <style>
      .cls-1 {
        fill: #fff;
        stroke-width: 0px;
      }
    </style>
  </defs>
  <g id="Layer_1-2" data-name="Layer 1">
    <path class="cls-1" d="M480.51,314.45V91.74h-102.19V0H98.71v91.74H0v222.71h64.54c2.19,14.98,6.27,29.35,11.99,42.87l-53.95,116.77h434.67l-55.54-117.96c5.46-13.17,9.36-27.14,11.49-41.68h67.31ZM378.32,210.13c13.2,23.27,20.73,50.14,20.73,78.75,0,3.21-.1,6.4-.29,9.57h-24.21l-12.69-26.97h16.46v-61.35ZM397,314.45c-1.16,7.25-2.81,14.33-4.92,21.22l-9.99-21.22h14.91ZM238.87,128.69c13.99,0,27.57,1.8,40.51,5.19l57.25,121.6h-195.42l56.05-121.31c13.27-3.57,27.22-5.48,41.61-5.48ZM205.74,115.82l3.73-8.08h57.6l3.7,7.85c-10.35-1.91-21.01-2.9-31.9-2.9s-22.4,1.07-33.13,3.13ZM284.76,107.74h77.56v55.55c-19.85-19.52-44.3-34.38-71.55-42.8l-6.01-12.75ZM344.17,271.48l12.7,26.97H121.36l12.46-26.97h210.35ZM354.32,255.48l-53.9-114.49c24.2,10.11,45.41,25.99,61.9,45.92v68.57h-8ZM362.32,16v75.74h-85.09l-35.66-75.74h120.75ZM259.54,91.74h-42.68l21.14-45.75,21.54,45.75ZM114.71,16h119.53l-35,75.74h-84.53V16ZM114.71,107.74h77.14l-6.06,13.12c-27.1,8.58-51.39,23.55-71.08,43.13v-56.25ZM114.71,187.78c16.35-20.05,37.45-36.08,61.58-46.35l-52.7,114.05h-8.88v-67.7ZM116.19,271.48l-12.46,26.97h-24.75c-.19-3.17-.29-6.36-.29-9.57,0-28.09,7.26-54.51,20.02-77.48v60.08h17.48ZM96.34,314.45l-10.33,22.36c-2.27-7.24-4.05-14.71-5.27-22.36h15.6ZM62.69,288.88c0,3.21.09,6.4.26,9.57H16V107.74h82.71v74.51c-22.59,29.63-36.02,66.59-36.02,106.63ZM47.6,458.09l38.04-82.34c22.45,39.45,59.68,69.43,104.11,82.34H47.6ZM94.11,357.43l19.86-42.98h250.43l19.74,41.91s-.01,0,0,.01c-25.52,54.69-81.05,92.69-145.27,92.69s-119.03-37.51-144.76-91.63ZM432.03,458.09h-144.04c44.84-13.04,82.37-43.46,104.74-83.46l39.3,83.46ZM378.32,181.33v-73.59h86.19v190.71h-49.72c.17-3.17.26-6.36.26-9.57,0-40.45-13.71-77.77-36.73-107.55Z"/>
  </g>
</svg>