<?xml version="1.0" encoding="UTF-8"?>
<svg id="Layer_2" data-name="Layer 2" xmlns="http://www.w3.org/2000/svg" viewBox="0 0 359.49 367.54">
  <defs>
    <style>
      .cls-1 {
        fill: #fff;
        stroke-width: 0px;
      }
    </style>
  </defs>
  <g id="Layer_1-2" data-name="Layer 1">
    <path class="cls-1" d="M172.71,298.52c.37.39.42.98.11,1.42-.57.8-.99,1.41-1.45,1.98-2.34,2.93-3.96,6.15-4.37,9.95-.36,3.37-1.36,6.56-2.97,9.56-.45.84-.93,1.72-1.11,2.65-1.31,6.55-4.63,12.2-7.97,17.83-1.46,2.47-3.08,4.86-4.81,7.14-1.05,1.37-2.45,2.48-3.72,3.68-1.27,1.2-2.56,2.38-3.87,3.54-.95.84-1.94,1.64-2.93,2.43-1.87,1.48-3.83,2.85-5.59,4.46-1,.91-2.04,1.49-3.32,1.74-6.62,1.3-13.22,2.41-19.97.77-1.52-.37-3.18-.33-4.77-.25-5.31.26-10.54-.22-15.73-1.35-1.56-.34-3.14-.6-4.71-.92-3.55-.72-6.95-.23-10.38.89-3.94,1.28-7.96,2.38-12.01,3.24-1.81.39-3.86.31-5.68-.1-3.26-.73-6.51-1.67-9.62-2.89-3.78-1.48-7.49-1.76-11.21-.22-3.14,1.3-6.16,1.29-9.33.12-4.44-1.64-9.11-1.86-13.74-1.35-2.64.29-5.19,1.35-8.06,2.15-1.69-1.26-1.97-3.34-1.8-5.4.23-2.86.52-5.76,1.28-8.51,1.25-4.48,1.49-8.77-.43-13.12-.64-1.44-.86-3.06-1.22-4.62-.51-2.18-.7-4.48-1.5-6.53-1.32-3.36-1.04-6.55.13-9.81.71-1.98,1.33-4,2.1-5.95,1.12-2.83,1.22-5.97.19-8.83-.7-1.96-1.37-3.92-2.17-5.84-1.14-2.77-1.3-5.5-.43-8.42,1.14-3.83,1.96-7.75,3-11.6.73-2.71.8-5.38-.29-7.99-1.71-4.1-1.85-8.38-1.68-12.73.08-2.07.12-4.18-.21-6.21-1.14-7.05-.18-14.03.54-21.02.09-.85.43-2.18.73-2.97,1.29-3.36,2.14-6.8,2.47-10.42.13-1.37,1-3.33,1.93-4.34,2.48-2.7,5.19-5.21,7.97-7.61,1.05-.91,2.49-1.49,3.85-1.91,6.11-1.86,11.85-4.87,18.26-5.78.92-.13,1.83-.4,2.67-.82,2.55-1.27,5.23-1.98,8.04-2.27,1.17-.12,2.34-.34,3.48-.62,2.67-.65,5.36-1.25,8.01-1.99,1.99-.56,4.1-.98,5.86-1.98,3.02-1.71,3.01-4.99.17-7.03-.76-.55-1.66-.97-2.56-1.26-1.36-.45-2.76-.95-4.18-1.07-5.79-.47-11.15-2.63-16.71-4-9.65-2.37-18.19-6.99-25.56-13.58-4.28-3.82-8.24-8.04-11.69-12.65-.97-1.29-1.69-2.77-2.13-4.32-1.3-4.66-1.53-9.29-.12-14.1,1.02-3.48,1.18-7.23,1.52-10.87.1-1.04-.41-2.18-.8-3.21-.74-1.94-1.67-3.81-2.38-5.76-1.69-4.65-2.01-9.35-.14-14.05,2.62-6.58,2.16-13.14-.12-19.69-.26-.75-.58-1.49-.86-2.24-.83-2.25-1-4.51-.06-6.73,1.57-3.72,1.55-7.88.6-11.8-1.62-6.66-1.41-13.38,1.05-19.93,1.01-2.69,1.81-5.47,2.79-8.17,1.19-3.28,1.32-6.52.13-9.85-.81-2.26-1.41-4.58-2.05-6.9-.25-.92-.46-1.87-.53-2.81-.12-1.76.75-2.81,2.48-2.81,3.36,0,6.77.01,9.9,1.44,4.09,1.87,8.17,1.64,12.09-.16,4.75-2.17,9.5-2.61,14.47-1.12,2.35.7,4.74.67,7.13.16,2.81-.6,5.67-1.06,8.42-1.86,4.7-1.38,9.45-1.67,14.25-1.06,3.33.43,6.66.94,9.93,1.66,3.09.68,6.12,1.01,9.27.36,2.01-.42,4.05-.64,6.09-.87,2.32-.26,4.66-.57,6.99-.59,6.36-.06,12.73.01,19.09.06,1.24,0,2.48.07,3.7.27,3.14.52,6,1.66,8.44,3.82,2.07,1.84,4.17,3.66,6.47,5.22,6.17,4.2,10.6,9.8,13.88,16.46,2.61,5.3,5.45,10.48,8.15,15.74,1.9,3.69,3.76,7.4,5.58,11.13,1.31,2.68,3.13,3.93,5.56,3.67,2.64-.28,4.78-1.99,5.28-4.8,1.41-7.85,4.94-14.81,8.67-21.71.76-1.4,1.24-2.94,1.9-4.4,1.38-3.09,2.69-6.21,4.25-9.21.65-1.26,1.5-2.4,2.53-3.38,3.46-3.3,6.89-6.69,11.45-8.52,2.39-.96,4.66-2.14,6.41-4.1,1.71-1.91,3.98-2.73,6.39-2.92,2.21-.18,4.53-.24,6.67.23,4.93,1.09,9.87,1.19,14.78.42,6.28-.99,12.44-.58,18.56.91,3.47.84,6.89,1.14,10.45.47,2.98-.56,6.02-.81,9.04-1.16,4.19-.49,8.26-.17,12.26,1.38,3.12,1.21,6.38,2.08,9.59,3.05,3.17.96,6.4,1.01,9.37-.49,5.15-2.61,10.17-2.2,15.26.05,1.17.52,2.41.87,3.62,1.27,2.37.78,4.74.83,7.03-.2,3.98-1.8,8.36-1.67,12.5-2.7.37-.09.99-.21,1.37-.21,3.35-.07,4.56,1.34,3.84,4.48-.11.47-.2.95-.39,1.38-2.87,6.71-1.78,13.49-.3,20.26.24,1.09.66,2.14.92,3.23.9,3.67,1.09,7.3-1,10.67-1.16,1.87-1,3.62.07,5.41,1.22,2.04,1.59,4.32,1.66,6.68.02.53.09,1.05.22,1.56,1.36,5.31,1.16,10.52-.8,15.65-.82,2.16-.85,4.38-.34,6.61.78,3.43.31,6.7-1.34,9.76-1.39,2.58-1.18,5.09-.51,7.87,1.12,4.68,1.81,9.47,2.6,14.23.21,1.23.25,2.49.11,3.73-.53,4.83-1.04,9.65-.16,14.51.16.9.04,1.83-.28,2.69-1.58,4.33-2.82,8.8-5.37,12.73-1.47,2.28-2.63,4.77-4.19,6.97-1.37,1.93-3.05,3.67-4.73,5.35-1.35,1.35-2.92,2.48-4.37,3.73-2.43,2.1-4.97,4.03-8.09,5.03-.91.29-1.85.63-2.62,1.17-4,2.77-8.52,4.24-13.15,5.53-2.92.82-5.7,2.1-8.59,3.04-1.5.49-3.1.7-4.64,1.07-2.07.5-4.16.93-6.19,1.55s-3.58,2.3-3.87,4.38c-.38,2.68.76,4.66,3.02,5.86,1.26.66,2.64,1.15,4.02,1.53,8.01,2.21,16.05,4.35,24.07,6.55,9.7,2.66,18.31,7.39,26.19,13.59,2.34,1.84,3.87,4.26,5.17,6.82.54,1.08.6,2.45.65,3.71.04.94-.26,1.89-.43,2.83-.54,2.94-.3,5.7,1.47,8.26.72,1.03,1.39,2.22,1.63,3.43.78,3.91,1.47,7.85,1.93,11.8.16,1.35-.29,2.86-.77,4.19-1.24,3.49-2,7.05-2.24,10.76-.11,1.74-.58,3.46-.95,5.18-.53,2.43-.33,4.64.96,6.91,3.13,5.48,3.18,11.26,1.04,17.12-.33.9-.6,1.83-.99,2.7-1.28,2.92-1.46,5.86-.27,8.86,2.1,5.3,2.43,10.91,2.64,16.5.17,4.53-1.27,8.83-2.41,13.16-.57,2.16-1.16,4.33-1.51,6.53-.46,2.9.09,5.58,1.51,8.29,1.7,3.23,2.9,6.75,3.98,10.26,1.05,3.44-.32,5.4-3.87,5.43-3.99.03-7.99-.41-11.98-.72-.68-.05-1.36-.18-2.02-.35-3.64-.91-7.22-.9-10.67.48-3.99,1.6-8.02,1.86-12.23.87-4.78-1.12-9.5-.7-14.18.89-6.04,2.06-12.19,2.18-18.46.95-3.94-.77-7.84-1.51-11.5-3.22-5.14-2.4-10.46-1.87-15.42.14-4.66,1.89-9.21,2.11-14.07,1.6-3.96-.42-7.98-.22-11.98-.25-1.28,0-2.56.16-3.83.18-4.85.08-9.32-.86-13.82-3.06-8.83-4.32-15.6-10.73-20.16-19.14-4.17-7.68-8.23-15.52-10.67-24.03-.83-2.9-2.21-5.64-3.19-8.51-.92-2.71-1.67-5.48-2.57-8.53-.09-.29-.02-.62.18-.84.51-.57,1.08-1.28,1.8-1.75,2.83-1.83,5.9-3.16,9.18-4.04,5.43-1.46,10.47-.14,15.36,2.07,2.17.98,3.47,2.87,3.74,5.25.22,1.9.25,3.83.18,5.73-.1,2.93-.32,5.85-.59,8.77-.15,1.63-.45,3.25-.84,4.85-.78,3.2-.96,6.45-.78,9.71.28,4.78,2.87,7.55,7.69,7.29,7.33-.39,14.62,0,21.92.14,1.56.03,3.11-.18,4.64-.49,3.42-.69,6.82-.51,10.28-.36,6.11.28,12.08,1,17.85,3.2,1.58.6,3.48.68,5.19.53,4.61-.41,9.24-.87,13.79-1.7,4.91-.89,9.78-1.42,14.78-.88,4.77.51,9.57.82,14.36.97,2.2.07,4.49-.18,6.62-.76,5.14-1.38,9.23-7.58,7.13-13.28-1.81-4.91-2.03-9.99-2.17-15.11-.07-2.43.24-4.74,1.29-6.99,2.14-4.58,2.33-9.28.22-13.93-1.96-4.32-1.87-8.71-.51-13.11,1.25-4.01,1.67-8.14,2.06-12.27.3-3.22.04-6.35-1.42-9.36-1.74-3.59-1.76-7.34-.83-11.23.89-3.72,1.36-7.55,1.97-11.33.68-4.2-.24-7.85-3.4-10.96-1.69-1.67-2.88-3.87-5.11-4.96-1.13-.55-2.36-1.17-3.56-1.22-5.89-.23-11.83-.81-17.59,1.16-1.44.49-2.82.31-4.22-.21-4.06-1.49-8.13-1.52-12.19.03-.59.23-1.22.4-1.85.49-2.02.28-3.9-.74-4.59-2.66-.43-1.19-.68-2.47-.79-3.74-.35-3.84-.39-7.68.14-11.51.15-1.1.33-2.2.42-3.3.47-5.41.52-10.85.79-16.27.14-2.9.04-5.74-.88-8.53-.96-2.93-1.23-5.96-.87-9.01.45-3.75,2.59-5.88,6.4-5.71,7.38.33,14.7-.25,22.04-.77,2.05-.15,4.14.2,6.22.33,2.39.15,4.78.38,7.18.44,3.52.08,5.99-1.46,7.71-4.65,2.06-3.81,2.95-7.77,2.44-12.01-.59-4.97-.98-9.94-.51-14.94.04-.44.02-.89-.06-1.33-1.56-8.34-.41-16.55,1.09-24.76.58-3.19.49-6.37-.38-9.51-1.44-5.19-1.59-10.36-.16-15.62,1.1-4.05,1.21-8.16-.07-12.3-1.15-3.73-.87-7.59-.16-11.41.44-2.36.92-4.71,1.21-7.09.41-3.39-.56-6.31-3.23-8.59-1.84-1.56-3.58-3.24-5.43-4.79-2.41-2-5.78-2.56-8.61-1.22-4.77,2.25-9.5,1.8-14.38.56-1.98-.5-4.16-.97-6.12-.65-5.03.81-9.88.04-14.77-.82-.38-.07-.99-.21-1.36-.31-4.53-1.22-8.98-1.38-13.74-.46-4.87.95-10,.57-14.97-.27-1.97-.33-4-.32-5.92.22-6.73,1.92-13.33.8-19.92-.91-2.25-.58-4.49-1.26-6.78-1.6-2.77-.41-5.54,1.08-6.62,3.67s-1.53,5.33-.92,8.09c.84,3.78.84,7.61.86,11.45,0,2.61.2,5.23.55,7.82.9,6.64-1.26,10.02-8.11,11.61-4.85,1.12-9.8,1.48-14.78,1.22-2.6-.13-5.04-.68-7.11-2.46-2.97-2.55-6.2-2.49-9.26-.29-3.24,2.33-6.59,2.8-10.45,1.95-2.3-.51-4.77-.24-7.16-.31-2.1-.06-4.2.01-6.29-.18-1.76-.16-3.23-1.43-3.71-3.14-.39-1.39-.73-2.86-.71-4.28.05-3.51.23-7.02.52-10.52.3-3.67.67-7.33-.07-10.99-1.15-5.7-4.39-8.99-10.1-9.05-5.94-.06-11.76-.83-17.64-1.37-3.11-.29-6.39.27-9.48.96-5.17,1.16-10.02,1.09-14.76-1.6-1-.57-2.48-.59-3.68-.42-3.64.52-7.27,1.14-10.86,1.94-2.78.62-5.65.63-8.43.05-4.23-.87-8.5-1.11-12.78-.42-4.01.65-8.11.72-12.15.23-2.38-.29-4.8-.23-7.17-.57-5.2-.75-11.94,6.25-10.97,11.49.15.78.09,1.62.32,2.37,1.63,5.35,1.13,10.75.51,16.17-.18,1.58-.14,3.18-.2,4.78-.07,2.07-.12,4.14-.22,6.21-.16,3.38-.42,6.75-.53,10.13-.11,3.03.47,6.03,1.49,8.89,1.78,5,1.7,9.98.13,15.04-1.04,3.36-.88,6.74.33,10.1,2.13,5.91,1.69,12.42-.59,18.27-1.09,2.79-1.78,5.63-1.91,8.65-.28,6.72,4.83,13.33,11.84,13.97,3.03.28,6.05.57,9.08.75,5.78.35,11.57.67,17.36.9,2.33.09,4.68.12,7-.13,5.12-.54,8.8,2.28,9.35,7.34.37,3.43.68,6.86.85,10.3.1,2.14.02,4.3-.27,6.42-1.2,8.83-.66,17.51,1.85,26.09.62,2.13,1.04,4.38,1.12,6.59.14,4.15-2.92,6.53-6.9,5.63-.78-.18-1.54-.44-2.29-.7-3.6-1.24-7.28-1.36-10.84-.09-3.19,1.14-6.18.96-9.38.04-3.68-1.06-7.47-1.71-11.23-2.48-2.57-.53-4.79.28-6.46,2.26-5.23,6.2-7.73,13.18-5.84,21.34.33,1.4.69,2.79,1.08,4.18,1.59,5.63,1.84,11.29.46,16.97-.65,2.67-.8,5.42-.52,8.15.3,2.99.27,6.07-.02,9.07-.33,3.4-1.04,6.77-1.76,10.11-.56,2.6-.42,5.28.23,7.86,1.07,4.27.97,8.54,0,12.83-.39,1.71-.51,3.48-.83,5.21-.69,3.77-1.38,7.53-2.17,11.28-.56,2.66-1.48,5.33-.08,7.95,1.96,3.69,4.02,7.34,7.96,9.41,1.72.9,3.72,1.09,5.63.72,2.33-.46,4.69-.84,6.96-1.51,4.4-1.29,8.81-1.25,13.31-.8,3.17.31,6.37.3,9.55.52,2.22.15,4.47.28,6.64.75,2.85.61,5.65.88,8.56.64,8.15-.68,16.3-.19,24.45.36,2.54.17,5.1-.1,7.65-.01,3.03.1,6.05.3,9.07.56,1.75.15,3.47.66,5.21.74,5.15.24,9.79-2.89,11.44-7.78.55-1.64.88-3.44.87-5.16-.03-6.87-.24-13.74-.39-20.61-.05-2.13-.31-4.27-.11-6.38.28-2.95,2.4-5.41,5.26-6.18,2.19-.59,4.56-.77,6.83-.69,3.83.13,7.65.58,11.47.9,2.74.23,4.98,1.34,7.04,3.51Z"/>
    <path class="cls-1" d="M262.48,142.47c0,.8.09,1.61-.02,2.39-.53,4.02-.4,7.89,1.15,11.77,1.15,2.86.64,6,.33,9.02-.18,1.75-.47,3.49-.63,5.23-.41,4.51-.18,8.96,1.52,13.22,1.48,3.7,1.43,7.4.7,11.29-1.45,7.72-1.77,15.54-1.35,23.38.06,1.12.07,2.24.03,3.35-.14,4.15-.37,8.29-.44,12.44-.04,2.47-.46,4.78-2.01,6.76-2.08,2.64-4.68,4.36-8.18,4.27-3.51-.1-7.03-.36-10.54-.36-2.55,0-5.12.13-7.63.51-3.45.52-4.96,2.31-4.33,5.62,1.01,5.3.05,10.5-.04,15.75-.12,6.73-5.25,10.82-9.78,12.22-1.36.42-2.82.74-4.23.72-3.67-.04-7.35-.1-10.99-.52-4.16-.48-8.3-.73-12.43-.12-7.34,1.08-14.68.8-22.01.22-5.91-.46-11.79-.79-17.72-.34-4.32.33-8.63.19-12.79-1.32-2-.73-4.05-.73-6.15-.52-4.65.46-7.16-1.18-8.83-5.54-.94-2.46-1.05-5-.76-7.56.18-1.59.43-3.17.79-4.73,1.61-6.84-5.57-15.17-12.4-14.34-2.54.31-5.09.46-7.62.83-1.93.28-3.81.53-5.6-.52-2.35-1.38-4.8-2.68-6.23-5.11-.54-.91-.86-2.14-.8-3.19.15-2.7.28-5.45.95-8.05.83-3.19.75-6.22.3-9.46-.7-5.05-1.12-10.17-1.16-15.27-.05-6.38.35-12.77.66-19.15.13-2.58.06-5.11-.62-7.61-.97-3.61-.89-7.2-.44-10.92.7-5.71,1.38-11.41,2.75-17.01,1.05-4.32.26-8.58-.5-12.84-.25-1.42-.77-2.8-.87-4.22-.13-1.9-.18-3.85.13-5.71.56-3.35,2.69-5.38,6.08-5.88,1.58-.23,3.19-.28,4.78-.28,2.4,0,4.81-.04,7.19.22,5.11.56,8.63-1.67,11.08-5.93.88-1.52,1.66-3.1,2.44-4.67,1.55-3.11,2.06-6.36,1.24-9.78-.3-1.24-.52-2.5-.75-3.76-.85-4.71,1.04-8.38,4.33-11.57,3.74-3.63,8.36-4.68,13.27-4.18,4.79.49,9.56.61,14.36.44,3.35-.12,6.71-.01,10.06.14,4.15.19,8.3.06,12.44.15,9.43.21,18.84-.13,28.26-.25,5.96-.07,11.28,2.1,16.47,4.6,2.73,1.32,4.08,4.03,4.87,6.84.51,1.82.67,3.77.74,5.68.14,3.67.09,7.35.15,11.03.02,1.28,0,2.57.22,3.82.6,3.45,2.57,5.92,6.01,6.7,2.62.6,5.36.74,8.06.95,1.26.09,2.55-.13,3.82-.26,3.72-.38,6.53,1.1,8.55,4.17.88,1.34,1.71,2.7,2.54,4.07,1.1,1.82,1.61,3.79,1.56,5.94-.06,2.4-.01,4.8-.01,7.19h.02ZM187.83,110.87c-3.66.05-6.94.63-10.6.48-3.5-.14-7.3-.17-10.79-.46-4.36-.37-8.23.52-11.33,4.32-.07.29-.32.9-.37,1.52-.5,5.24-.48,10.49.21,15.69.54,4.09,1.22,8.2,2.29,12.19,1.05,3.92,4.02,5.74,8.01,5.66,2.47-.05,4.95-.18,7.42-.15,5.45.07,10.84-.14,16.25-1.12,3.42-.62,6.51-.53,9.39-2.29,1.33-.81,2.19-2.15,2.58-3.55.34-1.21.33-3.64.39-4.9.34-7.98.17-15.94-.97-23.85-.09-.66-.26-1.3-.44-1.92-.26-.92-1.1-1.56-2.05-1.57l-9.99-.07ZM199.61,181.89c.09-1.25.13-2.51.29-3.75.51-3.92.38-7.82-.5-11.7-.45-1.99-.73-4.01-1.11-6.01-.67-3.45-1.81-4.38-5.55-4.45-3.79-.07-7.59-.06-11.38-.13-5.98-.11-11.93.16-17.77,1.35-1.57.32-3.18.67-4.63,1.25-1.73.69-2.85,1.91-2.83,3.69,0,.63,0,1.25-.04,1.88-.27,4.11.31,13.45.67,28.13.06,2.31.9,4.61,1.53,6.89.37,1.31,1.5,2.15,3.07,2.36,2.49.34,5.01.88,7.5.84,7.58-.12,15.17-.08,22.73-.85,2.81-.29,4.97-.9,6.93-2.79,1.06-1.02,1.79-1.76,1.69-3.14-.33-4.52-.69-13.57-.6-13.58ZM198.6,215.16c0-.78-1.43-3.06-3.01-3.37-4.84-.94-7.67-.18-12.41-.21s-10.29-.14-15.43.19c-2.66.17-5.34.29-7.97.68-1.91.28-2.95,1.44-3.31,3.39-.73,3.94-1.1,7.87-.97,11.88.49,15.27.21,21.44.19,18.47.02,3.57,1.02,5.85,7.15,6.05,1.6.05,3.2.12,4.8.12,5.16,0,10.32.17,15.47-.09,3.87-.2,7.81-.19,11.56-1.54,2.46-.89,3.85-2.38,3.81-4.85-.03-1.82.1-7.2.15-9.87s-.24-12.39-.17-14.29.18-3.96.15-6.56Z"/>
    <path class="cls-1" d="M277.12,70.02c0-6.24-.06-12.47.02-18.71.06-4.95,1.59-6.55,6.45-7.09.79-.09,1.6-.11,2.39-.11,4-.02,8-.04,11.99-.04,3.07,0,6.04.32,8.82,1.83,3.67,1.99,5.7,5.04,6.18,9.13.16,1.42.01,2.88.14,4.31.39,4.45.64,8.93,1.31,13.35.71,4.63.94,9.21.32,13.85-.19,1.43-.24,2.87-.47,4.29-.23,1.41-.48,2.84-.92,4.19-1.01,3.12-3.3,4.62-6.53,4.64-2.24.01-4.48-.18-6.71-.18-4.48,0-8.96.15-13.43.11-6.08-.06-9.56-3.41-9.66-9.42-.11-6.71-.03-13.43-.03-20.15.04,0,.08,0,.12,0Z"/>
    <path class="cls-1" d="M290,320.64c-1.6,0-3.2.11-4.79-.02-3.87-.31-6.5-2.27-7.84-6-1.5-4.18-1.63-8.4-.96-12.74.39-2.51.54-5.06.71-7.6.2-3.02.35-6.05.44-9.08.05-1.75-.03-3.5-.08-5.26-.03-.95-.28-1.92-.17-2.86.56-5.08,2.98-8.95,9.13-9.05.8-.01,1.61-.09,2.39,0,5.4.65,10.8.94,16.24.72,3.77-.16,6.36,1.68,7.89,5.11,1.31,2.95,2.04,5.92,1.82,9.26-.26,3.96.27,7.96.22,11.94-.07,5.1-.21,10.21-.64,15.29-.64,7.44-6.44,12.02-13.91,11.22-3.48-.37-10.44-1.06-10.46-.93Z"/>
    <path class="cls-1" d="M77.81,301.22c-.06,1.58-.07,3.2.19,4.76.62,3.67.31,7.33.06,10.99-.04.63-.14,1.28-.32,1.88-.66,2.32-2.09,3.53-4.5,3.53-1.58,0-3.19-.22-4.74-.54-3.65-.76-7.23-.92-10.9.03-2.96.77-5.99.82-8.87-.71-2.63-1.4-4.16-3.47-4.19-6.47-.08-7.33-.09-14.66-.13-21.99,0-.96.05-1.93-.09-2.87-.79-5.44-.11-10.84.55-16.23.53-4.3,3.35-6.85,7.73-6.96,5.26-.13,10.53-.2,15.79-.06,5.83.15,9.4,3.84,9.6,9.76.12,3.67.02,7.34.02,11.01.17,0,0,9.25-.2,13.87Z"/>
    <path class="cls-1" d="M43.42,66.9c-.11-3.02-.21-6.36-.36-9.7-.12-2.58.16-5.06,1.21-7.48.9-2.06,2.31-3.4,4.48-3.94.77-.19,1.55-.46,2.33-.52,4.77-.36,9.54-.66,14.31-1.01,4.2-.31,6.92,1.75,8.83,5.3,1.85,3.46,2.77,7.16,2.75,11.03-.02,5.41-.1,10.85-1.76,16.09-.45,1.43-.33,2.82.11,4.23.52,1.67,1.04,3.35,1.45,5.06.63,2.6.39,5.07-1.43,7.21-.31.36-.51.82-.81,1.18-3.63,4.32-2.96,4.39-8.76,4.44-3.83.03-7.66-.02-11.49-.09-1.43-.02-2.88-.08-4.3-.29-3.54-.53-5.3-2.33-5.94-5.89-.03-.16-.07-.31-.07-.47-.15-8.27-2.04-16.49-.54-25.13Z"/>
    <path class="cls-1" d="M262.22,58.89c.32,5.54.1,10.14-.51,14.76-.59,4.44-.58,8.92.35,13.36.43,2.03.87,4.07,1.09,6.13.25,2.33-1.11,4.1-3.42,4.4-1.23.16-2.56.06-3.78-.22-1.71-.39-3.35-1.07-5.02-1.62-1.99-.66-3.24-2.02-3.71-4.04-.8-3.42-1.66-6.83-2.26-10.29-.24-1.36.13-2.84.28-4.26.2-1.9.52-3.8.67-5.71.17-2.18-.6-4.09-2.05-5.71-1.54-1.72-3.55-2.64-5.71-3.35-2.13-.7-4.08-.41-5.98.7-3.79,2.22-6.43-.6-6.89-3.78-.55-3.72-.13-7.34,1.25-10.83.96-2.41,2.76-3.92,5.37-4.23,1.74-.2,3.5-.17,5.26-.24,3.02-.13,6.05-.25,9.07-.39,2.55-.11,5.1-.34,7.65-.32,1.24.01,2.58.28,3.71.8,2.98,1.36,4.81,3.56,4.67,7.1-.11,2.87-.02,5.75-.02,7.72Z"/>
    <path class="cls-1" d="M262.18,279.31c.15,2.31.21,5.67.63,8.99.59,4.66.57,9.24-.79,13.76-.67,2.21-.64,4.4-.09,6.62.46,1.88.57,3.77,0,5.68-1.4,4.64-4.87,7.09-9.71,6.73-1.11-.08-2.21-.31-3.31-.5-4.74-.83-9.57-1.58-14.29-.52-6.58,1.49-11.84-6.51-9.9-12.75.71-2.29,2.33-3.82,4.8-4.16,1.1-.15,2.23-.09,3.35-.09.96,0,1.94.17,2.87.03,6.24-.92,8.49-3.4,9.74-8.38.79-3.14.71-6.34.4-9.53-.18-1.91-.47-3.81-.55-5.72-.14-3.16.95-5.93,2.85-8.44,2.82-3.71,6.61-4.82,11.04-4.23,2.28.31,3.38,1.51,3.55,3.81.08,1.11-.02,2.23-.09,3.35-.09,1.43-.24,2.86-.46,5.35Z"/>
    <path class="cls-1" d="M94.35,77.07c0-2.56.1-5.12-.03-7.66-.16-3.02-.39-6.05-.82-9.04-.39-2.71-.56-5.37-.05-8.09.76-3.98,3.3-6.04,7.07-6.84.78-.16,1.59-.25,2.38-.2,5.1.29,10.2.55,15.29.96,7.65.61,10.44,8.51,8.59,14.74-.54,1.83-1.83,2.99-3.81,3.14-1.27.09-2.56.02-3.83.12-1.27.09-2.56.18-3.79.48-2.52.62-3.7,2.24-3.64,4.89.03,1.11.3,2.22.39,3.33.34,4.14.7,8.27.97,12.41.21,3.16-.88,6-2.56,8.59-2.26,3.48-6.3,5.08-9.96,4.09-3.39-.92-5.66-2.93-6.06-6.57-.23-2.06-.38-4.14-.36-6.2.02-2.71.22-7.89.21-8.13Z"/>
    <path class="cls-1" d="M110.1,286.33c-.16,3.18-.4,6.38-.24,9.55.2,4.06,2.24,6.91,6.34,7.99.77.2,1.56.39,2.29.68,2.83,1.13,4.14,3.1,3.54,5.98-.45,2.16-1.27,4.28-2.19,6.29-1.24,2.68-3.4,4.02-6.5,4.02-2.05,0-4.15.32-6.14.83-3.02.78-6.02.63-9.04.31-1.09-.11-2.18-.49-3.21-.9-1.79-.72-2.8-2.12-2.86-4.05-.04-1.26.03-2.56.27-3.8.49-2.54.59-5.08.08-7.61-.48-2.39-.39-4.75,0-7.14.8-4.94.57-9.82-.35-14.75-.67-3.59-.84-7.27-1.22-10.91-.38-3.6,2.2-6.78,6.84-6.83,6.41-.07,12,4.74,12.78,11.26.13,1.1.02,2.23.02,3.35.05,0-.3,3.81-.4,5.72Z"/>
    <path class="cls-1" d="M62.77,117.62c2.7-.21,5.39-.56,8.09-.67,3.66-.15,6.35,1.59,8.43,4.53,4.06,5.76,2.94,11.83.14,16.11-1.32,2.02-3.05,2.76-5.28,2.27-1.23-.27-2.5-.68-3.55-1.35-3.53-2.28-7.37-2.82-11.45-2.5-1.43.11-2.86.06-4.3.06-3.77,0-6.32-1.95-7.99-5.14-1.73-3.31-1.5-6.81-.37-10.21.65-1.96,2.25-3.08,4.37-3.18,1.74-.09,3.49-.02,5.24-.02,0,.17,4.45.27,6.67.1Z"/>
    <path class="cls-1" d="M292.25,120.29c3.64-.4,7.27-.78,10.91-1.2,1.27-.15,2.52-.44,3.78-.55,3.09-.26,4.94,1.04,5.26,4.16.27,2.67.12,5.4-.05,8.09-.1,1.66-1.07,2.95-2.56,3.82-2.79,1.63-5.71,2.98-9,2.8-4.04-.22-7.92.29-11.74,1.61-1.48.51-3.12.69-4.7.75-2.85.11-4.88-1.21-5.89-3.95-.96-2.57-1.41-5.24-1.28-7.97.18-3.87,2.44-6.62,6.18-7.51,1.23-.29,2.52-.35,3.79-.39,1.75-.06,3.51-.02,5.26-.02,0,.12.02.24.03.36Z"/>
    <path class="cls-1" d="M313.62,242.38c.1,6.53-3.55,9.51-9.75,7.57-3.58-1.13-7.16-1.52-10.83-1.47-1.43.02-2.86.22-4.28.4-2.27.29-4.47.06-6.57-.84-2.63-1.12-3.92-3.18-3.75-6.03.1-1.75.29-3.5.58-5.23.59-3.57,2.26-4.97,5.82-5.01.8,0,1.59.12,2.39.13,4.3.04,8.61.1,12.91.08,3.25-.02,6.28.6,9.22,2.11,2.7,1.39,4.12,3.41,4.27,6.38.03.64,0,1.27,0,1.91Z"/>
    <path class="cls-1" d="M71.9,232.21c5.65.7,7.52,4.17,7.82,9.72.15,2.67-1.23,4.9-3.83,6.1-2.23,1.03-4.55,1.49-6.98.94-3.17-.72-6.31-.7-9.46.12-2.22.58-4.43.3-6.61-.33-3.39-.98-5.36-3.09-5.23-6.5.11-2.83.8-5.65,1.46-8.43.37-1.55,1.78-2.27,3.29-2.33,2.7-.11,5.41-.03,8.11-.03,0-.13,7.63.27,11.42.74Z"/>
    <path class="cls-1" d="M185.59,130.65c.45.45,1.05.61,1.59.38,1.96-.83,2.69-2.9,3.78-5.04,1.1-2.17,2.05-4.72,3.08-6.99.11-.25.34-.39.56-.34,1.06.24.67,2.34.62,3.22-.21,3.78-.62,7.74-1,11.49-.15,1.47-.67,2.88-1.1,4.6-1.16.32-2.29.74-3.45.92-4.47.7-8.94.92-13.47.56-2.96-.23-5.94-.03-8.92-.55-2.28-.4-3.54-1.74-3.89-4.56-.39-3.18-.88-6.34-1.13-9.54-.18-2.24-.3-6.96-.07-7.12s1,.81,1.21,1.33c.88,2.2,1.65,4.47,2.53,6.66.54,1.35,1.12,2.7,1.85,3.89,2.03,3.31,4.71,3.27,6.73-.08.53-.89.78-2.04,1.28-2.97.4-.76.88-1.54,1.48-2.04,2.36-2,3.69-1.64,5.2,1.41.74,1.5,1.73,3.37,3.12,4.75Z"/>
    <path class="cls-1" d="M170.54,179.84c-.31-.26-2.5-2.17-3.6-3.3s-1.53-1.96-1.64-3.54,1.14-3.06,2.12-4.53c1.29-1.95,2.95-2.86,5.93-3.35s4.72-.6,6.84-.71c2.33-.12,4.03-.2,6.56-.05.28.05.46.2.63.47.29.47.04,1.06-.53,1.23-1,.3-1.86.45-2.78.82-2.77,1.12-5.01,1.78-5.7,4.46-.32,1.23-.55,3.12.74,4.18,2.16,1.57,5.29,4.19,6.12,5.3s2.48,3.37,2.82,4.04c.23.46.11,1.89.07,2.86s-.49,1.47-.89,2.25-1.95,3.39-3.36,4.27-10.08,2.46-14.03,1.62c-.23-.05-.4-.25-.36-.45.12-.65,1.02-1.07,1.5-1.39,4.08-2.75,6.66-7.8,3.04-10.96l-3.46-3.21Z"/>
    <path class="cls-1" d="M182.89,241.22c2.98.47,7.44-.03,7.31.41-.55,1.89-4.36,3.09-5.91,3.3-5.4.72-7.99.44-13.28-1.05-3.04-.86-5.62-2.29-6.2-5.52-.47-2.59-.97-5.36-.92-8.33.25-4.34,1.77-7.76,2.99-8.64.85-.77,1.6-2.58,5.98-3.04s6.71-.41,10.6-.27c.55.02,5.77.53,5.85,1.06.05.36-3.53,2.19-4.98,2.56-1.57.41-5.82.53-7.63,1.37-3.77,1.75-3.3,3.55-3.85,6.11-.21,1.64-.41,3.21-.37,3.89.11,1.85.24,2.58,1.3,3.81,2.31,2.69,6.13,3.85,9.11,4.32Z"/>
  </g>
</svg>